G04*
G04 #@! TF.GenerationSoftware,Altium Limited,Altium Designer,24.9.1 (31)*
G04*
G04 Layer_Color=65535*
%FSLAX44Y44*%
%MOMM*%
G71*
G04*
G04 #@! TF.SameCoordinates,CB504186-4DDD-4C07-9CBA-7D3857A53BA6*
G04*
G04*
G04 #@! TF.FilePolarity,Positive*
G04*
G01*
G75*
%ADD10C,0.2000*%
%ADD11C,0.5000*%
%ADD12C,0.1270*%
%ADD13C,0.1000*%
%ADD14C,0.2540*%
%ADD15C,0.1500*%
D10*
X673158Y176407D02*
G03*
X672995Y164244I-1908J-6057D01*
G01*
X120480Y392030D02*
X122510D01*
Y370840D02*
Y392030D01*
X88980Y370840D02*
X110530D01*
X122510D01*
X88980D02*
Y392030D01*
X120480D01*
X194520Y354970D02*
X226020D01*
Y376160D01*
X192490D02*
X204470D01*
X226020D01*
X192490Y354970D02*
Y376160D01*
Y354970D02*
X194520D01*
X192490Y378970D02*
X194520D01*
X192490D02*
Y400160D01*
X204470D02*
X226020D01*
X192490D02*
X204470D01*
X226020Y378970D02*
Y400160D01*
X194520Y378970D02*
X226020D01*
X128970Y217480D02*
Y248980D01*
Y217480D02*
X150160D01*
Y239030D02*
Y251010D01*
Y217480D02*
Y239030D01*
X128970Y251010D02*
X150160D01*
X128970Y248980D02*
Y251010D01*
X127990Y168970D02*
X130020D01*
X127990D02*
Y190160D01*
X139970D02*
X161520D01*
X127990D02*
X139970D01*
X161520Y168970D02*
Y190160D01*
X130020Y168970D02*
X161520D01*
X69520Y241970D02*
X101020D01*
Y263160D01*
X67490D02*
X79470D01*
X101020D01*
X67490Y241970D02*
Y263160D01*
Y241970D02*
X69520D01*
X76490Y215970D02*
X78520D01*
X76490D02*
Y237160D01*
X88470D02*
X110020D01*
X76490D02*
X88470D01*
X110020Y215970D02*
Y237160D01*
X78520Y215970D02*
X110020D01*
X88520Y156970D02*
X120020D01*
Y178160D01*
X86490D02*
X98470D01*
X120020D01*
X86490Y156970D02*
Y178160D01*
Y156970D02*
X88520D01*
X318030Y262490D02*
Y264520D01*
X296840Y262490D02*
X318030D01*
X296840Y274470D02*
Y296020D01*
Y262490D02*
Y274470D01*
Y296020D02*
X318030D01*
Y264520D02*
Y296020D01*
X209020Y298970D02*
X240520D01*
Y320160D01*
X206990D02*
X218970D01*
X240520D01*
X206990Y298970D02*
Y320160D01*
Y298970D02*
X209020D01*
X206990Y323970D02*
X209020D01*
X206990D02*
Y345160D01*
X218970D02*
X240520D01*
X206990D02*
X218970D01*
X240520Y323970D02*
Y345160D01*
X209020Y323970D02*
X240520D01*
X635030Y397020D02*
Y428520D01*
X613840D02*
X635030D01*
X613840Y394990D02*
Y406970D01*
Y428520D01*
Y394990D02*
X635030D01*
Y397020D01*
X417480Y106030D02*
X419510D01*
Y84840D02*
Y106030D01*
X385980Y84840D02*
X407530D01*
X419510D01*
X385980D02*
Y106030D01*
X417480D01*
X553980Y328030D02*
X585480D01*
X553980Y306840D02*
Y328030D01*
X575530Y306840D02*
X587510D01*
X553980D02*
X575530D01*
X587510D02*
Y328030D01*
X585480D02*
X587510D01*
X198990Y406970D02*
X201020D01*
X198990D02*
Y428160D01*
X210970D02*
X232520D01*
X198990D02*
X210970D01*
X232520Y406970D02*
Y428160D01*
X201020Y406970D02*
X232520D01*
X433980Y250030D02*
X465480D01*
X433980Y228840D02*
Y250030D01*
X455530Y228840D02*
X467510D01*
X433980D02*
X455530D01*
X467510D02*
Y250030D01*
X465480D02*
X467510D01*
X555490Y402970D02*
X557520D01*
X555490D02*
Y424160D01*
X567470D02*
X589020D01*
X555490D02*
X567470D01*
X589020Y402970D02*
Y424160D01*
X557520Y402970D02*
X589020D01*
X555520Y329970D02*
X587020D01*
Y351160D01*
X553490D02*
X565470D01*
X587020D01*
X553490Y329970D02*
Y351160D01*
Y329970D02*
X555520D01*
X61030Y243990D02*
Y246020D01*
X39840Y243990D02*
X61030D01*
X39840Y255970D02*
Y277520D01*
Y243990D02*
Y255970D01*
Y277520D02*
X61030D01*
Y246020D02*
Y277520D01*
X557980Y378030D02*
X589480D01*
X557980Y356840D02*
Y378030D01*
X579530Y356840D02*
X591510D01*
X557980D02*
X579530D01*
X591510D02*
Y378030D01*
X589480D02*
X591510D01*
X296480Y60030D02*
X298510D01*
Y38840D02*
Y60030D01*
X264980Y38840D02*
X286530D01*
X298510D01*
X264980D02*
Y60030D01*
X296480D01*
X295030Y175520D02*
Y207020D01*
X273840D02*
X295030D01*
X273840Y173490D02*
Y185470D01*
Y207020D01*
Y173490D02*
X295030D01*
Y175520D01*
X33980Y266030D02*
X36010D01*
Y244840D02*
Y266030D01*
X2480Y244840D02*
X24030D01*
X36010D01*
X2480D02*
Y266030D01*
X33980D01*
X593020Y315970D02*
X624520D01*
Y337160D01*
X590990D02*
X602970D01*
X624520D01*
X590990Y315970D02*
Y337160D01*
Y315970D02*
X593020D01*
X263490Y61970D02*
X265520D01*
X263490D02*
Y83160D01*
X275470D02*
X297020D01*
X263490D02*
X275470D01*
X297020Y61970D02*
Y83160D01*
X265520Y61970D02*
X297020D01*
X243030Y220520D02*
Y252020D01*
X221840D02*
X243030D01*
X221840Y218490D02*
Y230470D01*
Y252020D01*
Y218490D02*
X243030D01*
Y220520D01*
X61970Y50480D02*
Y52510D01*
X83160D01*
Y18980D02*
Y40530D01*
Y52510D01*
X61970Y18980D02*
X83160D01*
X61970D02*
Y50480D01*
X148970Y67980D02*
Y99480D01*
Y67980D02*
X170160D01*
Y89530D02*
Y101510D01*
Y67980D02*
Y89530D01*
X148970Y101510D02*
X170160D01*
X148970Y99480D02*
Y101510D01*
X61000Y240000D02*
X73000D01*
X61000Y210000D02*
Y240000D01*
Y210000D02*
X73000D01*
Y240000D01*
X597840Y348720D02*
X618160D01*
X597840D02*
Y384280D01*
X618160Y348720D02*
Y384280D01*
X597840D02*
X618160D01*
X429000Y342140D02*
X438500D01*
X457500D02*
X467000D01*
X429000Y321820D02*
Y342140D01*
Y260860D02*
Y281180D01*
Y260860D02*
X467000D01*
X429000Y281180D02*
Y321820D01*
X438500Y342140D02*
X457500D01*
X467000Y260860D02*
Y342140D01*
X672995Y164244D02*
X673458Y119373D01*
X313250Y119350D02*
X673458Y119350D01*
X313250Y147150D02*
Y195550D01*
X673250Y176700D02*
Y223175D01*
X582150Y223350D02*
X673250D01*
X313250D02*
X404350D01*
X582150D01*
X313250Y205650D02*
Y215050D01*
Y127650D02*
Y137050D01*
Y147150D01*
Y119350D02*
Y127650D01*
Y215050D02*
Y223350D01*
Y195550D02*
Y205650D01*
X474840Y91280D02*
X495160D01*
Y55720D02*
Y91280D01*
X474840Y55720D02*
Y91280D01*
Y55720D02*
X495160D01*
X500780Y95840D02*
Y116160D01*
X465220Y95840D02*
X500780D01*
X465220Y116160D02*
X500780D01*
X465220Y95840D02*
Y116160D01*
X463780Y70840D02*
Y91160D01*
X428220Y70840D02*
X463780D01*
X428220Y91160D02*
X463780D01*
X428220Y70840D02*
Y91160D01*
X462780Y95840D02*
Y116160D01*
X427220Y95840D02*
X462780D01*
X427220Y116160D02*
X462780D01*
X427220Y95840D02*
Y116160D01*
X473220Y300840D02*
Y321160D01*
X508780D01*
X473220Y300840D02*
X508780D01*
Y321160D01*
X508280Y275840D02*
Y296160D01*
X472720Y275840D02*
X508280D01*
X472720Y296160D02*
X508280D01*
X472720Y275840D02*
Y296160D01*
X508780Y250840D02*
Y271160D01*
X473220Y250840D02*
X508780D01*
X473220Y271160D02*
X508780D01*
X473220Y250840D02*
Y271160D01*
X508780Y226840D02*
Y247160D01*
X473220Y226840D02*
X508780D01*
X473220Y247160D02*
X508780D01*
X473220Y226840D02*
Y247160D01*
X559220Y241840D02*
Y262160D01*
X594780D01*
X559220Y241840D02*
X594780D01*
Y262160D01*
X75000Y184250D02*
Y212000D01*
Y184250D02*
X113000D01*
Y212000D01*
X75000D02*
X113000D01*
X336780Y62840D02*
Y83160D01*
X301220Y62840D02*
X336780D01*
X301220Y83160D02*
X336780D01*
X301220Y62840D02*
Y83160D01*
X5900Y508430D02*
X82100D01*
Y460170D02*
Y508430D01*
X5900Y460170D02*
X82100D01*
X5900D02*
Y508430D01*
X8300Y434430D02*
X84500D01*
Y386170D02*
Y434430D01*
X8300Y386170D02*
X84500D01*
X8300D02*
Y434430D01*
X33570Y331300D02*
X81830D01*
X33570Y382100D02*
X81830D01*
Y331300D02*
Y382100D01*
X33570Y331300D02*
Y382100D01*
X293000Y213360D02*
Y294640D01*
X264500D02*
X283500D01*
X255000Y233680D02*
Y274320D01*
Y213360D02*
X293000D01*
X255000D02*
Y233680D01*
Y274320D02*
Y294640D01*
X283500D02*
X293000D01*
X255000D02*
X264500D01*
X206840Y296780D02*
X227160D01*
Y261220D02*
Y296780D01*
X206840Y261220D02*
Y296780D01*
Y261220D02*
X227160D01*
X202720Y69840D02*
Y90160D01*
X238280D01*
X202720Y69840D02*
X238280D01*
Y90160D01*
X236840Y128780D02*
X257160D01*
Y93220D02*
Y128780D01*
X236840Y93220D02*
Y128780D01*
Y93220D02*
X257160D01*
X269280Y450840D02*
Y471160D01*
X233720Y450840D02*
X269280D01*
X233720Y471160D02*
X269280D01*
X233720Y450840D02*
Y471160D01*
X606750Y395500D02*
Y402750D01*
Y417250D02*
Y424500D01*
X593750Y426250D02*
X606750D01*
Y402750D02*
Y417250D01*
X593750Y395500D02*
X606750D01*
X593750D02*
Y424500D01*
X606750D01*
X187250Y425750D02*
X194500D01*
X165500D02*
X172750D01*
X163750Y412750D02*
Y425750D01*
X172750D02*
X187250D01*
X194500Y412750D02*
Y425750D01*
X165500Y412750D02*
X194500D01*
X165500D02*
Y425750D01*
X181250Y370750D02*
X188500D01*
X159500D02*
X166750D01*
X157750Y357750D02*
Y370750D01*
X166750D02*
X181250D01*
X188500Y357750D02*
Y370750D01*
X159500Y357750D02*
X188500D01*
X159500D02*
Y370750D01*
X181250Y386750D02*
X188500D01*
X159500D02*
X166750D01*
X157750Y373750D02*
Y386750D01*
X166750D02*
X181250D01*
X188500Y373750D02*
Y386750D01*
X159500Y373750D02*
X188500D01*
X159500D02*
Y386750D01*
X62000Y167000D02*
Y197000D01*
X74000D01*
Y167000D02*
Y197000D01*
X62000Y167000D02*
X74000D01*
X229840Y296780D02*
X250160D01*
Y261220D02*
Y296780D01*
X229840Y261220D02*
Y296780D01*
Y261220D02*
X250160D01*
X152840Y216720D02*
X173160D01*
X152840D02*
Y252280D01*
X173160Y216720D02*
Y252280D01*
X152840D02*
X173160D01*
X198840Y217220D02*
X219160D01*
X198840D02*
Y252780D01*
X219160Y217220D02*
Y252780D01*
X198840D02*
X219160D01*
X164280Y193840D02*
Y214160D01*
X128720Y193840D02*
X164280D01*
X128720Y214160D02*
X164280D01*
X128720Y193840D02*
Y214160D01*
X66780Y437840D02*
Y458160D01*
X31220Y437840D02*
X66780D01*
X31220Y458160D02*
X66780D01*
X31220Y437840D02*
Y458160D01*
X166720Y193840D02*
Y214160D01*
X202280D01*
X166720Y193840D02*
X202280D01*
Y214160D01*
X205220Y193840D02*
Y214160D01*
X240780D01*
X205220Y193840D02*
X240780D01*
Y214160D01*
X611840Y434220D02*
X632160D01*
X611840D02*
Y469780D01*
X632160Y434220D02*
Y469780D01*
X611840D02*
X632160D01*
X446780Y41840D02*
Y62160D01*
X411220Y41840D02*
X446780D01*
X411220Y62160D02*
X446780D01*
X411220Y41840D02*
Y62160D01*
X336780Y40840D02*
Y61160D01*
X301220Y40840D02*
X336780D01*
X301220Y61160D02*
X336780D01*
X301220Y40840D02*
Y61160D01*
X341220Y41840D02*
Y62160D01*
X376780D01*
X341220Y41840D02*
X376780D01*
Y62160D01*
X41780Y510840D02*
Y531160D01*
X6220Y510840D02*
X41780D01*
X6220Y531160D02*
X41780D01*
X6220Y510840D02*
Y531160D01*
X199840Y469280D02*
X220160D01*
Y433720D02*
Y469280D01*
X199840Y433720D02*
Y469280D01*
Y433720D02*
X220160D01*
X507280Y332840D02*
Y353160D01*
X471720Y332840D02*
X507280D01*
X471720Y353160D02*
X507280D01*
X471720Y332840D02*
Y353160D01*
X298280Y86840D02*
Y107160D01*
X262720Y86840D02*
X298280D01*
X262720Y107160D02*
X298280D01*
X262720Y86840D02*
Y107160D01*
X45840Y326280D02*
X66160D01*
Y290720D02*
Y326280D01*
X45840Y290720D02*
Y326280D01*
Y290720D02*
X66160D01*
X2220Y270840D02*
Y291160D01*
X37780D01*
X2220Y270840D02*
X37780D01*
Y291160D01*
X175840Y217220D02*
X196160D01*
X175840D02*
Y252780D01*
X196160Y217220D02*
Y252780D01*
X175840D02*
X196160D01*
X381840Y76780D02*
X402160D01*
Y41220D02*
Y76780D01*
X381840Y41220D02*
Y76780D01*
Y41220D02*
X402160D01*
X236908Y139029D02*
X243573D01*
X240240Y142362D02*
Y135697D01*
X86000Y9250D02*
X99329D01*
D11*
X199414Y268000D02*
G03*
X199414Y268000I-1414J0D01*
G01*
X73000Y303000D02*
X79000D01*
X552000Y387000D02*
Y393000D01*
D12*
X167000Y509000D02*
G03*
X167000Y509000I-37000J0D01*
G01*
D13*
X212000Y158000D02*
Y161000D01*
X174000D02*
X212000D01*
X174000Y147000D02*
Y161000D01*
Y93000D02*
Y107000D01*
X212000Y93000D02*
Y96000D01*
X174000Y93000D02*
X212000D01*
X622000Y233000D02*
X664000D01*
X673000Y253000D02*
Y273000D01*
X623000Y293000D02*
X665000D01*
X613000Y253000D02*
Y273000D01*
X558000Y277000D02*
Y295000D01*
X590000Y277000D02*
Y295000D01*
X558000Y286000D02*
Y295000D01*
X572000Y294000D02*
X576000D01*
X578000D01*
X570000D02*
X572000D01*
X188000Y339000D02*
Y340000D01*
X186000D02*
X188000D01*
X118000Y270000D02*
Y272000D01*
Y270000D02*
X120000D01*
X118000Y339000D02*
Y340000D01*
X120000D01*
X188000Y270000D02*
X190000Y272000D01*
X471170Y31750D02*
Y38100D01*
Y12700D02*
Y19050D01*
X265430Y12700D02*
Y38100D01*
Y12700D02*
X471170D01*
Y19050D02*
Y31750D01*
X469900Y38100D02*
X471170D01*
X265430D02*
X469900D01*
X473960Y12300D02*
X631440D01*
Y21190D02*
Y28810D01*
X473960Y37700D02*
X631440D01*
X473960Y21190D02*
Y28810D01*
Y12300D02*
Y21190D01*
Y28810D02*
Y37700D01*
X631440Y12300D02*
Y21190D01*
Y28810D02*
Y37700D01*
X172720Y495300D02*
X431800D01*
X172720D02*
Y520700D01*
X431800D01*
Y495300D02*
Y520700D01*
X444500Y495300D02*
X648970D01*
X443230D02*
X444500D01*
X443230Y501650D02*
Y514350D01*
Y520700D02*
X648970D01*
Y495300D02*
Y520700D01*
X443230Y514350D02*
Y520700D01*
Y495300D02*
Y501650D01*
X127300Y363350D02*
Y468340D01*
Y363350D02*
X136690D01*
X146344D02*
X152700D01*
Y468340D01*
X136690Y363350D02*
X146344D01*
X136190Y468340D02*
X143810D01*
X127300D02*
X136190D01*
X143810D02*
X152700D01*
X657390Y482500D02*
X666610D01*
X649300Y404750D02*
X674700D01*
Y482500D01*
X649300Y404750D02*
Y482500D01*
X657390D01*
X666610D02*
X674700D01*
X66100Y78390D02*
Y87610D01*
X143850Y70300D02*
Y95700D01*
X66100D02*
X143850D01*
X66100Y70300D02*
X143850D01*
X66100D02*
Y78390D01*
Y87610D02*
Y95700D01*
X-21620Y202500D02*
X-10620D01*
X-14870Y198250D02*
X-10620Y202500D01*
X-10370D01*
X-14870Y206875D02*
Y207000D01*
X-10370Y202500D01*
Y202375D02*
Y202500D01*
Y167500D02*
X-8120D01*
X-10370Y235500D02*
X-7620D01*
X-21370Y252250D02*
X-10370D01*
X-21370Y152500D02*
X-10370D01*
X-10370Y152500D01*
Y252250D01*
X7380Y162250D02*
Y240500D01*
X2755Y162250D02*
Y240125D01*
X-5120Y162250D02*
X10630D01*
X-5120Y162250D02*
X-5120Y162250D01*
X-5120Y162250D02*
Y240500D01*
X9880D01*
X32380D02*
X37630D01*
X33130Y162000D02*
X37880D01*
X51130Y179250D02*
Y184250D01*
X51380Y217750D02*
Y222750D01*
X182500Y441500D02*
X184500D01*
X176500D02*
X178500D01*
X182500D01*
X196500Y440500D02*
Y449500D01*
X164500Y440500D02*
Y458500D01*
X196500Y440500D02*
Y458500D01*
X30000Y312000D02*
Y314000D01*
Y306000D02*
Y308000D01*
Y312000D01*
X22000Y326000D02*
X31000D01*
X13000Y294000D02*
X31000D01*
X13000Y326000D02*
X31000D01*
X367500Y83500D02*
Y85500D01*
Y77500D02*
Y79500D01*
Y83500D01*
X359500Y97500D02*
X368500D01*
X350500Y65500D02*
X368500D01*
X350500Y97500D02*
X368500D01*
X69000Y141000D02*
Y156000D01*
Y103500D02*
Y121000D01*
X9000Y111000D02*
Y121000D01*
Y141000D02*
Y148500D01*
X19000Y158500D01*
X69000D01*
Y156000D02*
Y158500D01*
X19000Y103500D02*
X69000D01*
X9000Y111000D02*
X16500Y103500D01*
X19000D01*
X83500Y103000D02*
Y118000D01*
Y138000D02*
Y155500D01*
X143500Y138000D02*
Y148000D01*
Y110500D02*
Y118000D01*
X133500Y100500D02*
X143500Y110500D01*
X83500Y100500D02*
X133500D01*
X83500D02*
Y103000D01*
Y155500D02*
X133500D01*
X136000D02*
X143500Y148000D01*
X133500Y155500D02*
X136000D01*
X190000Y26000D02*
Y46000D01*
X200000Y66000D02*
X242000D01*
X250000Y26000D02*
Y46000D01*
X199000Y6000D02*
X241000D01*
D14*
X83000Y265000D02*
Y301000D01*
X69421Y265000D02*
X83000D01*
X69421D02*
Y301000D01*
X554000Y397000D02*
X590000D01*
Y383421D02*
Y397000D01*
X554000Y383421D02*
X590000D01*
X24950Y448740D02*
Y453819D01*
Y451280D01*
X9714D01*
X12254Y448740D01*
X27350Y374740D02*
Y379819D01*
Y377280D01*
X12114D01*
X14654Y374740D01*
X88540Y334540D02*
X93618D01*
X91079D01*
Y349775D01*
X88540Y347236D01*
X287210Y2540D02*
Y9204D01*
Y5872D01*
X267216D01*
X270549Y2540D01*
X627040Y530710D02*
Y524045D01*
Y527378D01*
X647034D01*
X643701Y530710D01*
X269948Y424866D02*
X266616Y428198D01*
X259951D01*
X256619Y424866D01*
Y421534D01*
X259951Y418201D01*
X266616D01*
X269948Y414869D01*
Y411537D01*
X266616Y408204D01*
X259951D01*
X256619Y411537D01*
X286610Y408204D02*
X279945D01*
X276613Y411537D01*
Y418201D01*
X279945Y421534D01*
X286610D01*
X289942Y418201D01*
Y414869D01*
X276613D01*
X296606Y421534D02*
Y411537D01*
X299939Y408204D01*
X309935D01*
Y404872D01*
X306603Y401540D01*
X303271D01*
X309935Y408204D02*
Y421534D01*
X319932Y408204D02*
Y424866D01*
Y418201D01*
X316600D01*
X323264D01*
X319932D01*
Y424866D01*
X323264Y428198D01*
X333261Y421534D02*
Y411537D01*
X336594Y408204D01*
X346590D01*
Y421534D01*
X353255Y408204D02*
X359919D01*
X356587D01*
Y428198D01*
X353255D01*
X369916Y408204D02*
X376581D01*
X373248D01*
Y428198D01*
X369916D01*
X389910Y421534D02*
X396574D01*
X399906Y418201D01*
Y408204D01*
X389910D01*
X386577Y411537D01*
X389910Y414869D01*
X399906D01*
X406571Y428198D02*
Y408204D01*
Y418201D01*
X409903Y421534D01*
X416568D01*
X419900Y418201D01*
Y408204D01*
X446558D02*
X453223D01*
X449890D01*
Y421534D01*
X446558D01*
X463219Y408204D02*
X469884D01*
X466552D01*
Y428198D01*
X463219D01*
X486545Y401540D02*
X489877D01*
X493210Y404872D01*
Y421534D01*
X483213D01*
X479881Y418201D01*
Y411537D01*
X483213Y408204D01*
X493210D01*
X499874Y421534D02*
Y411537D01*
X503206Y408204D01*
X513203D01*
Y421534D01*
X519868Y408204D02*
Y421534D01*
X529865D01*
X533197Y418201D01*
Y408204D01*
X496710Y3040D02*
Y8118D01*
Y5579D01*
X481475D01*
X484014Y3040D01*
X407290Y528710D02*
Y523632D01*
Y526171D01*
X422525D01*
X419986Y528710D01*
X116040Y446140D02*
X121118D01*
X118579D01*
Y461375D01*
X116040Y458836D01*
X637040Y462540D02*
X642118D01*
X639579D01*
Y477775D01*
X637040Y475236D01*
X86060Y58040D02*
Y63118D01*
Y60579D01*
X70825D01*
X73364Y58040D01*
X383476Y243328D02*
X380937Y245868D01*
X375858D01*
X373319Y243328D01*
Y240789D01*
X375858Y238250D01*
X380937D01*
X383476Y235711D01*
Y233172D01*
X380937Y230632D01*
X375858D01*
X373319Y233172D01*
X398711Y243328D02*
X396172Y245868D01*
X391093D01*
X388554Y243328D01*
Y233172D01*
X391093Y230632D01*
X396172D01*
X398711Y233172D01*
X403789Y245868D02*
Y230632D01*
Y235711D01*
X413946Y245868D01*
X406328Y238250D01*
X413946Y230632D01*
X419024Y245868D02*
X429181D01*
X424103D01*
Y230632D01*
D15*
X652641Y229569D02*
Y226236D01*
Y227902D01*
X662637D01*
X660971Y229569D01*
M02*
