G04*
G04 #@! TF.GenerationSoftware,Altium Limited,Altium Designer,24.9.1 (31)*
G04*
G04 Layer_Color=8388736*
%FSLAX44Y44*%
%MOMM*%
G71*
G04*
G04 #@! TF.SameCoordinates,CB504186-4DDD-4C07-9CBA-7D3857A53BA6*
G04*
G04*
G04 #@! TF.FilePolarity,Negative*
G04*
G01*
G75*
%ADD31R,1.9000X1.9000*%
%ADD37R,0.9000X1.5000*%
%ADD38R,1.5000X0.9000*%
%ADD39R,2.4000X3.7000*%
%ADD40R,2.4000X0.8000*%
%ADD41R,0.8000X1.1000*%
%ADD42R,1.5000X1.1000*%
%ADD43R,2.8000X2.7000*%
%ADD44R,1.1000X1.5000*%
%ADD45R,0.7500X1.2000*%
%ADD46R,1.7000X0.7000*%
%ADD47R,0.7000X1.7000*%
%ADD48R,1.2000X2.4000*%
%ADD49C,3.0480*%
%ADD50R,1.0000X1.0000*%
%ADD51R,1.0000X1.0000*%
%ADD52R,1.6000X1.8000*%
%ADD53R,2.1000X2.1000*%
%ADD54R,1.4500X0.5000*%
%ADD55R,1.2000X0.7500*%
%ADD56R,0.8858X0.7588*%
%ADD57R,0.7588X0.8858*%
%ADD58R,3.2000X1.8000*%
%ADD59C,2.1000*%
%ADD60R,2.1000X2.1000*%
%ADD61R,1.8000X2.2000*%
%ADD62O,1.8000X2.2000*%
%ADD63C,7.6000*%
%ADD64C,3.4000*%
%ADD65C,4.2000*%
%ADD66O,2.2000X1.8000*%
%ADD67R,2.2000X1.8000*%
%ADD68C,1.9000*%
%ADD69R,1.9000X1.9000*%
G04:AMPARAMS|DCode=70|XSize=2.2mm|YSize=1.4mm|CornerRadius=0.4mm|HoleSize=0mm|Usage=FLASHONLY|Rotation=0.000|XOffset=0mm|YOffset=0mm|HoleType=Round|Shape=RoundedRectangle|*
%AMROUNDEDRECTD70*
21,1,2.2000,0.6000,0,0,0.0*
21,1,1.4000,1.4000,0,0,0.0*
1,1,0.8000,0.7000,-0.3000*
1,1,0.8000,-0.7000,-0.3000*
1,1,0.8000,-0.7000,0.3000*
1,1,0.8000,0.7000,0.3000*
%
%ADD70ROUNDEDRECTD70*%
%ADD71C,1.4700*%
D31*
X70400Y344000D02*
D03*
D37*
X96500Y381000D02*
D03*
X115500D02*
D03*
X199500Y366000D02*
D03*
X218500D02*
D03*
Y390000D02*
D03*
X199500D02*
D03*
X154000Y180000D02*
D03*
X135000D02*
D03*
X74500Y253000D02*
D03*
X93500D02*
D03*
X102500Y227000D02*
D03*
X83500D02*
D03*
X93500Y168000D02*
D03*
X112500D02*
D03*
X214000Y310000D02*
D03*
X233000D02*
D03*
Y335000D02*
D03*
X214000D02*
D03*
X393500Y95000D02*
D03*
X412500D02*
D03*
X580500Y317000D02*
D03*
X561500D02*
D03*
X225000Y418000D02*
D03*
X206000D02*
D03*
X460500Y239000D02*
D03*
X441500D02*
D03*
X581500Y414000D02*
D03*
X562500D02*
D03*
X560500Y341000D02*
D03*
X579500D02*
D03*
X584500Y367000D02*
D03*
X565500D02*
D03*
X272500Y49000D02*
D03*
X291500D02*
D03*
X10000Y255000D02*
D03*
X29000D02*
D03*
X598000Y327000D02*
D03*
X617000D02*
D03*
X289500Y73000D02*
D03*
X270500D02*
D03*
D38*
X140000Y244000D02*
D03*
Y225000D02*
D03*
X307000Y288500D02*
D03*
Y269500D02*
D03*
X624000Y402000D02*
D03*
Y421000D02*
D03*
X50000Y270000D02*
D03*
Y251000D02*
D03*
X284000Y180500D02*
D03*
Y199500D02*
D03*
X232000Y225500D02*
D03*
Y244500D02*
D03*
X73000Y26500D02*
D03*
Y45500D02*
D03*
X160000Y94500D02*
D03*
Y75500D02*
D03*
D39*
X163000Y127000D02*
D03*
D40*
X222750Y152400D02*
D03*
Y139700D02*
D03*
Y127000D02*
D03*
Y114300D02*
D03*
Y101600D02*
D03*
D41*
X67000Y232500D02*
D03*
Y217500D02*
D03*
X68000Y189500D02*
D03*
Y174500D02*
D03*
D42*
X608000Y376000D02*
D03*
Y357000D02*
D03*
X485000Y64000D02*
D03*
Y83000D02*
D03*
X217000Y269500D02*
D03*
Y288500D02*
D03*
X247000Y101500D02*
D03*
Y120500D02*
D03*
X240000Y269500D02*
D03*
Y288500D02*
D03*
X163000Y244000D02*
D03*
Y225000D02*
D03*
X209000Y244500D02*
D03*
Y225500D02*
D03*
X622000Y461500D02*
D03*
Y442500D02*
D03*
X210000Y442000D02*
D03*
Y461000D02*
D03*
X56000Y299000D02*
D03*
Y318000D02*
D03*
X186000Y244500D02*
D03*
Y225500D02*
D03*
X392000Y49500D02*
D03*
Y68500D02*
D03*
D43*
X448000Y326000D02*
D03*
Y277000D02*
D03*
X274000Y229500D02*
D03*
Y278500D02*
D03*
D44*
X473500Y106000D02*
D03*
X492500D02*
D03*
X436500Y81000D02*
D03*
X455500D02*
D03*
X435500Y106000D02*
D03*
X454500D02*
D03*
X500500Y311000D02*
D03*
X481500D02*
D03*
X481000Y286000D02*
D03*
X500000D02*
D03*
X481500Y261000D02*
D03*
X500500D02*
D03*
X481500Y237000D02*
D03*
X500500D02*
D03*
X586500Y252000D02*
D03*
X567500D02*
D03*
X309500Y73000D02*
D03*
X328500D02*
D03*
X230000Y80000D02*
D03*
X211000D02*
D03*
X242000Y461000D02*
D03*
X261000D02*
D03*
X137000Y204000D02*
D03*
X156000D02*
D03*
X39500Y448000D02*
D03*
X58500D02*
D03*
X194000Y204000D02*
D03*
X175000D02*
D03*
X232500D02*
D03*
X213500D02*
D03*
X419500Y52000D02*
D03*
X438500D02*
D03*
X309500Y51000D02*
D03*
X328500D02*
D03*
X368500Y52000D02*
D03*
X349500D02*
D03*
X14500Y521000D02*
D03*
X33500D02*
D03*
X480000Y343000D02*
D03*
X499000D02*
D03*
X271000Y97000D02*
D03*
X290000D02*
D03*
X29500Y281000D02*
D03*
X10500D02*
D03*
D45*
X564500Y272500D02*
D03*
X574000D02*
D03*
X583500D02*
D03*
X564500Y299500D02*
D03*
X583500D02*
D03*
X171000Y436000D02*
D03*
X190000D02*
D03*
X171000Y463000D02*
D03*
X180500D02*
D03*
X190000D02*
D03*
D46*
X111000Y325000D02*
D03*
Y317000D02*
D03*
Y309000D02*
D03*
Y301000D02*
D03*
Y293000D02*
D03*
Y285000D02*
D03*
Y277000D02*
D03*
X195000D02*
D03*
Y285000D02*
D03*
Y293000D02*
D03*
Y301000D02*
D03*
Y309000D02*
D03*
Y317000D02*
D03*
Y325000D02*
D03*
Y333000D02*
D03*
X111000D02*
D03*
D47*
X125000Y263000D02*
D03*
X133000D02*
D03*
X141000D02*
D03*
X149000D02*
D03*
X157000D02*
D03*
X165000D02*
D03*
X173000D02*
D03*
X181000D02*
D03*
Y347000D02*
D03*
X173000D02*
D03*
X165000D02*
D03*
X157000D02*
D03*
X149000D02*
D03*
X141000D02*
D03*
X133000D02*
D03*
X125000D02*
D03*
D48*
X83000Y198000D02*
D03*
X105000D02*
D03*
D49*
X42000Y23000D02*
D03*
X106000Y426000D02*
D03*
X668000Y510000D02*
D03*
Y18000D02*
D03*
D50*
X600000Y402000D02*
D03*
Y418000D02*
D03*
D51*
X188000Y419000D02*
D03*
X172000D02*
D03*
X182000Y364000D02*
D03*
X166000D02*
D03*
X182000Y380000D02*
D03*
X166000D02*
D03*
D52*
X46505Y169000D02*
D03*
Y233000D02*
D03*
D53*
X22005Y189000D02*
D03*
Y213000D02*
D03*
D54*
X48755Y188000D02*
D03*
Y194500D02*
D03*
Y201000D02*
D03*
Y207500D02*
D03*
Y214000D02*
D03*
D55*
X35500Y300500D02*
D03*
Y319500D02*
D03*
X8500Y300500D02*
D03*
Y310000D02*
D03*
Y319500D02*
D03*
X373000Y72000D02*
D03*
Y91000D02*
D03*
X346000Y72000D02*
D03*
Y81500D02*
D03*
Y91000D02*
D03*
D56*
X76000Y295192D02*
D03*
Y270808D02*
D03*
D57*
X559808Y390000D02*
D03*
X584192D02*
D03*
D58*
X18500Y131000D02*
D03*
X59500D02*
D03*
X134000Y128000D02*
D03*
X93000D02*
D03*
D59*
X610500Y240500D02*
D03*
X675500D02*
D03*
Y285500D02*
D03*
X252500Y58500D02*
D03*
Y13500D02*
D03*
X187500D02*
D03*
D60*
X610500Y285500D02*
D03*
X187500Y58500D02*
D03*
D61*
X658350Y209450D02*
D03*
X279400Y25400D02*
D03*
X489200Y25000D02*
D03*
X416560Y508000D02*
D03*
X635000D02*
D03*
X79600Y83000D02*
D03*
D62*
X632950Y209450D02*
D03*
X607550D02*
D03*
X582150D02*
D03*
X556750D02*
D03*
X531350D02*
D03*
X505950D02*
D03*
X480550D02*
D03*
X455150D02*
D03*
X429750D02*
D03*
X404350D02*
D03*
X378950D02*
D03*
X353550D02*
D03*
X328150D02*
D03*
X658350Y133250D02*
D03*
X632950D02*
D03*
X607550D02*
D03*
X582150D02*
D03*
X556750D02*
D03*
X531350D02*
D03*
X505950D02*
D03*
X480550D02*
D03*
X455150D02*
D03*
X429750D02*
D03*
X404350D02*
D03*
X378950D02*
D03*
X353550D02*
D03*
X328150D02*
D03*
X355600Y25400D02*
D03*
X457200D02*
D03*
X431800D02*
D03*
X406400D02*
D03*
X381000D02*
D03*
X330200D02*
D03*
X304800D02*
D03*
X616200Y25000D02*
D03*
X590800D02*
D03*
X565400D02*
D03*
X540000D02*
D03*
X514600D02*
D03*
X187960Y508000D02*
D03*
X213360D02*
D03*
X238760D02*
D03*
X264160D02*
D03*
X289560D02*
D03*
X314960D02*
D03*
X340360D02*
D03*
X365760D02*
D03*
X391160D02*
D03*
X609600D02*
D03*
X584200D02*
D03*
X533400D02*
D03*
X508000D02*
D03*
X482600D02*
D03*
X457200D02*
D03*
X558800D02*
D03*
X130400Y83000D02*
D03*
X105000D02*
D03*
D63*
X136000Y24000D02*
D03*
X664000Y79000D02*
D03*
X660400Y355600D02*
D03*
D64*
X130000Y509000D02*
D03*
D65*
X259000Y156000D02*
D03*
X24000Y80000D02*
D03*
D66*
X140000Y376900D02*
D03*
Y402300D02*
D03*
Y427700D02*
D03*
X662000Y418200D02*
D03*
Y443600D02*
D03*
D67*
X140000Y453100D02*
D03*
X662000Y469000D02*
D03*
D68*
X69400Y497000D02*
D03*
X44000D02*
D03*
X18600D02*
D03*
X69400Y471600D02*
D03*
X44000D02*
D03*
X71800Y423000D02*
D03*
X46400D02*
D03*
X21000D02*
D03*
X71800Y397600D02*
D03*
X46400D02*
D03*
X45000Y369400D02*
D03*
Y344000D02*
D03*
X70400Y369400D02*
D03*
D69*
X18600Y471600D02*
D03*
X21000Y397600D02*
D03*
D70*
X22005Y168000D02*
D03*
Y234000D02*
D03*
D71*
X123000Y241250D02*
D03*
X105656Y238300D02*
D03*
X114150Y258000D02*
D03*
X84903Y279907D02*
D03*
X370000Y180900D02*
D03*
X511300Y249000D02*
D03*
X551000Y259000D02*
D03*
X201850Y80850D02*
D03*
X194000Y95000D02*
D03*
X426000Y362000D02*
D03*
X417000Y256000D02*
D03*
X268500Y333500D02*
D03*
X253000Y349000D02*
D03*
X259319Y314681D02*
D03*
X246681Y212318D02*
D03*
X267000Y196000D02*
D03*
X65000Y281000D02*
D03*
X77351Y199421D02*
D03*
X151000Y164000D02*
D03*
X40000Y152650D02*
D03*
X103000Y152000D02*
D03*
X73000Y162000D02*
D03*
X277000Y480000D02*
D03*
X227000Y481000D02*
D03*
X273650Y305350D02*
D03*
X289818Y326819D02*
D03*
X175906Y306047D02*
D03*
X152345Y315350D02*
D03*
X135000Y305000D02*
D03*
X131000Y324700D02*
D03*
X181217Y285000D02*
D03*
X156517Y289000D02*
D03*
X133000Y285000D02*
D03*
X213000Y167000D02*
D03*
X51000Y516000D02*
D03*
X123000Y205000D02*
D03*
X118350Y191055D02*
D03*
X81000Y450000D02*
D03*
X21000Y360000D02*
D03*
X169000Y166000D02*
D03*
X86000Y109000D02*
D03*
X135000Y108000D02*
D03*
X221000Y61000D02*
D03*
X198000Y114000D02*
D03*
X458000Y63000D02*
D03*
X406650Y51300D02*
D03*
X406850Y72000D02*
D03*
X595878Y183914D02*
D03*
X470000Y8000D02*
D03*
X100350Y399650D02*
D03*
X162000Y401000D02*
D03*
X249000Y255000D02*
D03*
X267850Y124000D02*
D03*
X193732Y257295D02*
D03*
X189352Y187058D02*
D03*
X196000Y151000D02*
D03*
X318850Y184000D02*
D03*
X333399Y186101D02*
D03*
X632000Y315000D02*
D03*
X603000Y308350D02*
D03*
X550000Y295000D02*
D03*
X92000Y360000D02*
D03*
X545000Y315000D02*
D03*
X89000Y324000D02*
D03*
X658000Y186000D02*
D03*
X571000Y174000D02*
D03*
X352000Y281000D02*
D03*
X249000Y395000D02*
D03*
X287000Y418000D02*
D03*
X375000Y434000D02*
D03*
X353000Y428000D02*
D03*
X313000Y361000D02*
D03*
X380000Y296000D02*
D03*
X500000Y362000D02*
D03*
M02*
