G04*
G04 #@! TF.GenerationSoftware,Altium Limited,Altium Designer,24.9.1 (31)*
G04*
G04 Layer_Color=2752767*
%FSLAX44Y44*%
%MOMM*%
G71*
G04*
G04 #@! TF.SameCoordinates,CB504186-4DDD-4C07-9CBA-7D3857A53BA6*
G04*
G04*
G04 #@! TF.FilePolarity,Positive*
G04*
G01*
G75*
%ADD12C,0.1270*%
%ADD93C,0.1693*%
D12*
X607960Y237960D02*
Y235420D01*
X613040D01*
Y237960D01*
X615580D01*
Y243040D01*
X613040D01*
Y245580D01*
X607960D01*
Y243040D01*
X605420D01*
Y237960D01*
X607960D01*
X672960D02*
Y235420D01*
X678040D01*
Y237960D01*
X680580D01*
Y243040D01*
X678040D01*
Y245580D01*
X672960D01*
Y243040D01*
X670420D01*
Y237960D01*
X672960D01*
X607960Y282960D02*
Y280420D01*
X613040D01*
Y282960D01*
X615580D01*
Y288040D01*
X613040D01*
Y290580D01*
X607960D01*
Y288040D01*
X605420D01*
Y282960D01*
X607960D01*
X672960D02*
Y280420D01*
X678040D01*
Y282960D01*
X680580D01*
Y288040D01*
X678040D01*
Y290580D01*
X672960D01*
Y288040D01*
X670420D01*
Y282960D01*
X672960D01*
X136000Y18920D02*
X138540Y21460D01*
X141080D01*
X138540Y24000D01*
X141080Y26540D01*
X138540D01*
X136000Y29080D01*
X133460Y26540D01*
X130920D01*
X133460Y24000D01*
X130920Y21460D01*
X133460D01*
X136000Y18920D01*
X130000Y503920D02*
X124920Y514080D01*
X135080D01*
X130000Y503920D01*
X664000Y73920D02*
X666540Y76460D01*
X669080D01*
X666540Y79000D01*
X669080Y81540D01*
X666540D01*
X664000Y84080D01*
X661460Y81540D01*
X658920D01*
X661460Y79000D01*
X658920Y76460D01*
X661460D01*
X664000Y73920D01*
X660400Y350520D02*
X662940Y353060D01*
X665480D01*
X662940Y355600D01*
X665480Y358140D01*
X662940D01*
X660400Y360680D01*
X657860Y358140D01*
X655320D01*
X657860Y355600D01*
X655320Y353060D01*
X657860D01*
X660400Y350520D01*
X253920Y150920D02*
X256460Y156000D01*
X253920Y161080D01*
X259000Y158540D01*
X264080Y161080D01*
X261540Y156000D01*
X264080Y150920D01*
X259000Y153460D01*
X253920Y150920D01*
X18920Y74920D02*
X21460Y80000D01*
X18920Y85080D01*
X24000Y82540D01*
X29080Y85080D01*
X26540Y80000D01*
X29080Y74920D01*
X24000Y77460D01*
X18920Y74920D01*
X16925Y162920D02*
Y173080D01*
X27085D01*
Y162920D01*
X16925D01*
Y228920D02*
Y239080D01*
X27085D01*
Y228920D01*
X16925D01*
X249960Y55960D02*
Y53420D01*
X255040D01*
Y55960D01*
X257580D01*
Y61040D01*
X255040D01*
Y63580D01*
X249960D01*
Y61040D01*
X247420D01*
Y55960D01*
X249960D01*
X184960D02*
Y53420D01*
X190040D01*
Y55960D01*
X192580D01*
Y61040D01*
X190040D01*
Y63580D01*
X184960D01*
Y61040D01*
X182420D01*
Y55960D01*
X184960D01*
X249960Y10960D02*
Y8420D01*
X255040D01*
Y10960D01*
X257580D01*
Y16040D01*
X255040D01*
Y18580D01*
X249960D01*
Y16040D01*
X247420D01*
Y10960D01*
X249960D01*
X184960D02*
Y8420D01*
X190040D01*
Y10960D01*
X192580D01*
Y16040D01*
X190040D01*
Y18580D01*
X184960D01*
Y16040D01*
X182420D01*
Y10960D01*
X184960D01*
X117920Y236170D02*
X120460D01*
X123000Y238710D01*
X125540Y236170D01*
X128080D01*
Y238710D01*
X125540Y241250D01*
X128080Y243790D01*
Y246330D01*
X125540D01*
X123000Y243790D01*
X120460Y246330D01*
X117920D01*
Y243790D01*
X120460Y241250D01*
X117920Y238710D01*
Y236170D01*
X100576Y233220D02*
X103116D01*
X105656Y235760D01*
X108196Y233220D01*
X110736D01*
Y235760D01*
X108196Y238300D01*
X110736Y240840D01*
Y243380D01*
X108196D01*
X105656Y240840D01*
X103116Y243380D01*
X100576D01*
Y240840D01*
X103116Y238300D01*
X100576Y235760D01*
Y233220D01*
X109070Y252920D02*
X111610D01*
X114150Y255460D01*
X116690Y252920D01*
X119230D01*
Y255460D01*
X116690Y258000D01*
X119230Y260540D01*
Y263080D01*
X116690D01*
X114150Y260540D01*
X111610Y263080D01*
X109070D01*
Y260540D01*
X111610Y258000D01*
X109070Y255460D01*
Y252920D01*
X79823Y274827D02*
X82363D01*
X84903Y277367D01*
X87443Y274827D01*
X89983D01*
Y277367D01*
X87443Y279907D01*
X89983Y282447D01*
Y284988D01*
X87443D01*
X84903Y282447D01*
X82363Y284988D01*
X79823D01*
Y282447D01*
X82363Y279907D01*
X79823Y277367D01*
Y274827D01*
X364920Y175820D02*
X367460D01*
X370000Y178360D01*
X372540Y175820D01*
X375080D01*
Y178360D01*
X372540Y180900D01*
X375080Y183440D01*
Y185980D01*
X372540D01*
X370000Y183440D01*
X367460Y185980D01*
X364920D01*
Y183440D01*
X367460Y180900D01*
X364920Y178360D01*
Y175820D01*
X506220Y243920D02*
X508760D01*
X511300Y246460D01*
X513840Y243920D01*
X516380D01*
Y246460D01*
X513840Y249000D01*
X516380Y251540D01*
Y254080D01*
X513840D01*
X511300Y251540D01*
X508760Y254080D01*
X506220D01*
Y251540D01*
X508760Y249000D01*
X506220Y246460D01*
Y243920D01*
X545920Y253920D02*
X548460D01*
X551000Y256460D01*
X553540Y253920D01*
X556080D01*
Y256460D01*
X553540Y259000D01*
X556080Y261540D01*
Y264080D01*
X553540D01*
X551000Y261540D01*
X548460Y264080D01*
X545920D01*
Y261540D01*
X548460Y259000D01*
X545920Y256460D01*
Y253920D01*
X196770Y75770D02*
X199310D01*
X201850Y78310D01*
X204390Y75770D01*
X206930D01*
Y78310D01*
X204390Y80850D01*
X206930Y83390D01*
Y85930D01*
X204390D01*
X201850Y83390D01*
X199310Y85930D01*
X196770D01*
Y83390D01*
X199310Y80850D01*
X196770Y78310D01*
Y75770D01*
X188920Y89920D02*
X191460D01*
X194000Y92460D01*
X196540Y89920D01*
X199080D01*
Y92460D01*
X196540Y95000D01*
X199080Y97540D01*
Y100080D01*
X196540D01*
X194000Y97540D01*
X191460Y100080D01*
X188920D01*
Y97540D01*
X191460Y95000D01*
X188920Y92460D01*
Y89920D01*
X420920Y356920D02*
X423460D01*
X426000Y359460D01*
X428540Y356920D01*
X431080D01*
Y359460D01*
X428540Y362000D01*
X431080Y364540D01*
Y367080D01*
X428540D01*
X426000Y364540D01*
X423460Y367080D01*
X420920D01*
Y364540D01*
X423460Y362000D01*
X420920Y359460D01*
Y356920D01*
X411920Y250920D02*
X414460D01*
X417000Y253460D01*
X419540Y250920D01*
X422080D01*
Y253460D01*
X419540Y256000D01*
X422080Y258540D01*
Y261080D01*
X419540D01*
X417000Y258540D01*
X414460Y261080D01*
X411920D01*
Y258540D01*
X414460Y256000D01*
X411920Y253460D01*
Y250920D01*
X263420Y328420D02*
X265960D01*
X268500Y330960D01*
X271040Y328420D01*
X273580D01*
Y330960D01*
X271040Y333500D01*
X273580Y336040D01*
Y338580D01*
X271040D01*
X268500Y336040D01*
X265960Y338580D01*
X263420D01*
Y336040D01*
X265960Y333500D01*
X263420Y330960D01*
Y328420D01*
X247920Y343920D02*
X250460D01*
X253000Y346460D01*
X255540Y343920D01*
X258080D01*
Y346460D01*
X255540Y349000D01*
X258080Y351540D01*
Y354080D01*
X255540D01*
X253000Y351540D01*
X250460Y354080D01*
X247920D01*
Y351540D01*
X250460Y349000D01*
X247920Y346460D01*
Y343920D01*
X254238Y309601D02*
X256779D01*
X259319Y312141D01*
X261859Y309601D01*
X264398D01*
Y312141D01*
X261859Y314681D01*
X264398Y317221D01*
Y319761D01*
X261859D01*
X259319Y317221D01*
X256779Y319761D01*
X254238D01*
Y317221D01*
X256779Y314681D01*
X254238Y312141D01*
Y309601D01*
X241602Y207239D02*
X244142D01*
X246681Y209778D01*
X249221Y207239D01*
X251761D01*
Y209778D01*
X249221Y212318D01*
X251761Y214858D01*
Y217398D01*
X249221D01*
X246681Y214858D01*
X244142Y217398D01*
X241602D01*
Y214858D01*
X244142Y212318D01*
X241602Y209778D01*
Y207239D01*
X261920Y190920D02*
X264460D01*
X267000Y193460D01*
X269540Y190920D01*
X272080D01*
Y193460D01*
X269540Y196000D01*
X272080Y198540D01*
Y201080D01*
X269540D01*
X267000Y198540D01*
X264460Y201080D01*
X261920D01*
Y198540D01*
X264460Y196000D01*
X261920Y193460D01*
Y190920D01*
X59920Y275920D02*
X62460D01*
X65000Y278460D01*
X67540Y275920D01*
X70080D01*
Y278460D01*
X67540Y281000D01*
X70080Y283540D01*
Y286080D01*
X67540D01*
X65000Y283540D01*
X62460Y286080D01*
X59920D01*
Y283540D01*
X62460Y281000D01*
X59920Y278460D01*
Y275920D01*
X72271Y194341D02*
X74811D01*
X77351Y196881D01*
X79891Y194341D01*
X82431D01*
Y196881D01*
X79891Y199421D01*
X82431Y201961D01*
Y204501D01*
X79891D01*
X77351Y201961D01*
X74811Y204501D01*
X72271D01*
Y201961D01*
X74811Y199421D01*
X72271Y196881D01*
Y194341D01*
X145920Y158920D02*
X148460D01*
X151000Y161460D01*
X153540Y158920D01*
X156080D01*
Y161460D01*
X153540Y164000D01*
X156080Y166540D01*
Y169080D01*
X153540D01*
X151000Y166540D01*
X148460Y169080D01*
X145920D01*
Y166540D01*
X148460Y164000D01*
X145920Y161460D01*
Y158920D01*
X34920Y147570D02*
X37460D01*
X40000Y150110D01*
X42540Y147570D01*
X45080D01*
Y150110D01*
X42540Y152650D01*
X45080Y155190D01*
Y157730D01*
X42540D01*
X40000Y155190D01*
X37460Y157730D01*
X34920D01*
Y155190D01*
X37460Y152650D01*
X34920Y150110D01*
Y147570D01*
X97920Y146920D02*
X100460D01*
X103000Y149460D01*
X105540Y146920D01*
X108080D01*
Y149460D01*
X105540Y152000D01*
X108080Y154540D01*
Y157080D01*
X105540D01*
X103000Y154540D01*
X100460Y157080D01*
X97920D01*
Y154540D01*
X100460Y152000D01*
X97920Y149460D01*
Y146920D01*
X67920Y156920D02*
X70460D01*
X73000Y159460D01*
X75540Y156920D01*
X78080D01*
Y159460D01*
X75540Y162000D01*
X78080Y164540D01*
Y167080D01*
X75540D01*
X73000Y164540D01*
X70460Y167080D01*
X67920D01*
Y164540D01*
X70460Y162000D01*
X67920Y159460D01*
Y156920D01*
X271920Y474920D02*
X274460D01*
X277000Y477460D01*
X279540Y474920D01*
X282080D01*
Y477460D01*
X279540Y480000D01*
X282080Y482540D01*
Y485080D01*
X279540D01*
X277000Y482540D01*
X274460Y485080D01*
X271920D01*
Y482540D01*
X274460Y480000D01*
X271920Y477460D01*
Y474920D01*
X221920Y475920D02*
X224460D01*
X227000Y478460D01*
X229540Y475920D01*
X232080D01*
Y478460D01*
X229540Y481000D01*
X232080Y483540D01*
Y486080D01*
X229540D01*
X227000Y483540D01*
X224460Y486080D01*
X221920D01*
Y483540D01*
X224460Y481000D01*
X221920Y478460D01*
Y475920D01*
X268570Y300270D02*
X271110D01*
X273650Y302810D01*
X276190Y300270D01*
X278730D01*
Y302810D01*
X276190Y305350D01*
X278730Y307890D01*
Y310430D01*
X276190D01*
X273650Y307890D01*
X271110Y310430D01*
X268570D01*
Y307890D01*
X271110Y305350D01*
X268570Y302810D01*
Y300270D01*
X284739Y321739D02*
X287278D01*
X289818Y324278D01*
X292358Y321739D01*
X294898D01*
Y324278D01*
X292358Y326819D01*
X294898Y329358D01*
Y331898D01*
X292358D01*
X289818Y329358D01*
X287278Y331898D01*
X284739D01*
Y329358D01*
X287278Y326819D01*
X284739Y324278D01*
Y321739D01*
X170826Y300967D02*
X173366D01*
X175906Y303507D01*
X178446Y300967D01*
X180986D01*
Y303507D01*
X178446Y306047D01*
X180986Y308587D01*
Y311127D01*
X178446D01*
X175906Y308587D01*
X173366Y311127D01*
X170826D01*
Y308587D01*
X173366Y306047D01*
X170826Y303507D01*
Y300967D01*
X147265Y310270D02*
X149805D01*
X152345Y312810D01*
X154885Y310270D01*
X157425D01*
Y312810D01*
X154885Y315350D01*
X157425Y317890D01*
Y320430D01*
X154885D01*
X152345Y317890D01*
X149805Y320430D01*
X147265D01*
Y317890D01*
X149805Y315350D01*
X147265Y312810D01*
Y310270D01*
X129920Y299920D02*
X132460D01*
X135000Y302460D01*
X137540Y299920D01*
X140080D01*
Y302460D01*
X137540Y305000D01*
X140080Y307540D01*
Y310080D01*
X137540D01*
X135000Y307540D01*
X132460Y310080D01*
X129920D01*
Y307540D01*
X132460Y305000D01*
X129920Y302460D01*
Y299920D01*
X125920Y319620D02*
X128460D01*
X131000Y322160D01*
X133540Y319620D01*
X136080D01*
Y322160D01*
X133540Y324700D01*
X136080Y327240D01*
Y329780D01*
X133540D01*
X131000Y327240D01*
X128460Y329780D01*
X125920D01*
Y327240D01*
X128460Y324700D01*
X125920Y322160D01*
Y319620D01*
X176137Y279920D02*
X178677D01*
X181217Y282460D01*
X183757Y279920D01*
X186297D01*
Y282460D01*
X183757Y285000D01*
X186297Y287540D01*
Y290080D01*
X183757D01*
X181217Y287540D01*
X178677Y290080D01*
X176137D01*
Y287540D01*
X178677Y285000D01*
X176137Y282460D01*
Y279920D01*
X151437Y283920D02*
X153977D01*
X156517Y286460D01*
X159057Y283920D01*
X161597D01*
Y286460D01*
X159057Y289000D01*
X161597Y291540D01*
Y294080D01*
X159057D01*
X156517Y291540D01*
X153977Y294080D01*
X151437D01*
Y291540D01*
X153977Y289000D01*
X151437Y286460D01*
Y283920D01*
X127920Y279920D02*
X130460D01*
X133000Y282460D01*
X135540Y279920D01*
X138080D01*
Y282460D01*
X135540Y285000D01*
X138080Y287540D01*
Y290080D01*
X135540D01*
X133000Y287540D01*
X130460Y290080D01*
X127920D01*
Y287540D01*
X130460Y285000D01*
X127920Y282460D01*
Y279920D01*
X207920Y161920D02*
X210460D01*
X213000Y164460D01*
X215540Y161920D01*
X218080D01*
Y164460D01*
X215540Y167000D01*
X218080Y169540D01*
Y172080D01*
X215540D01*
X213000Y169540D01*
X210460Y172080D01*
X207920D01*
Y169540D01*
X210460Y167000D01*
X207920Y164460D01*
Y161920D01*
X45920Y510920D02*
X48460D01*
X51000Y513460D01*
X53540Y510920D01*
X56080D01*
Y513460D01*
X53540Y516000D01*
X56080Y518540D01*
Y521080D01*
X53540D01*
X51000Y518540D01*
X48460Y521080D01*
X45920D01*
Y518540D01*
X48460Y516000D01*
X45920Y513460D01*
Y510920D01*
X117920Y199920D02*
X120460D01*
X123000Y202460D01*
X125540Y199920D01*
X128080D01*
Y202460D01*
X125540Y205000D01*
X128080Y207540D01*
Y210080D01*
X125540D01*
X123000Y207540D01*
X120460Y210080D01*
X117920D01*
Y207540D01*
X120460Y205000D01*
X117920Y202460D01*
Y199920D01*
X113270Y185975D02*
X115810D01*
X118350Y188515D01*
X120890Y185975D01*
X123430D01*
Y188515D01*
X120890Y191055D01*
X123430Y193595D01*
Y196135D01*
X120890D01*
X118350Y193595D01*
X115810Y196135D01*
X113270D01*
Y193595D01*
X115810Y191055D01*
X113270Y188515D01*
Y185975D01*
X75920Y444920D02*
X78460D01*
X81000Y447460D01*
X83540Y444920D01*
X86080D01*
Y447460D01*
X83540Y450000D01*
X86080Y452540D01*
Y455080D01*
X83540D01*
X81000Y452540D01*
X78460Y455080D01*
X75920D01*
Y452540D01*
X78460Y450000D01*
X75920Y447460D01*
Y444920D01*
X15920Y354920D02*
X18460D01*
X21000Y357460D01*
X23540Y354920D01*
X26080D01*
Y357460D01*
X23540Y360000D01*
X26080Y362540D01*
Y365080D01*
X23540D01*
X21000Y362540D01*
X18460Y365080D01*
X15920D01*
Y362540D01*
X18460Y360000D01*
X15920Y357460D01*
Y354920D01*
X163920Y160920D02*
X166460D01*
X169000Y163460D01*
X171540Y160920D01*
X174080D01*
Y163460D01*
X171540Y166000D01*
X174080Y168540D01*
Y171080D01*
X171540D01*
X169000Y168540D01*
X166460Y171080D01*
X163920D01*
Y168540D01*
X166460Y166000D01*
X163920Y163460D01*
Y160920D01*
X80920Y103920D02*
X83460D01*
X86000Y106460D01*
X88540Y103920D01*
X91080D01*
Y106460D01*
X88540Y109000D01*
X91080Y111540D01*
Y114080D01*
X88540D01*
X86000Y111540D01*
X83460Y114080D01*
X80920D01*
Y111540D01*
X83460Y109000D01*
X80920Y106460D01*
Y103920D01*
X129920Y102920D02*
X132460D01*
X135000Y105460D01*
X137540Y102920D01*
X140080D01*
Y105460D01*
X137540Y108000D01*
X140080Y110540D01*
Y113080D01*
X137540D01*
X135000Y110540D01*
X132460Y113080D01*
X129920D01*
Y110540D01*
X132460Y108000D01*
X129920Y105460D01*
Y102920D01*
X215920Y55920D02*
X218460D01*
X221000Y58460D01*
X223540Y55920D01*
X226080D01*
Y58460D01*
X223540Y61000D01*
X226080Y63540D01*
Y66080D01*
X223540D01*
X221000Y63540D01*
X218460Y66080D01*
X215920D01*
Y63540D01*
X218460Y61000D01*
X215920Y58460D01*
Y55920D01*
X192920Y108920D02*
X195460D01*
X198000Y111460D01*
X200540Y108920D01*
X203080D01*
Y111460D01*
X200540Y114000D01*
X203080Y116540D01*
Y119080D01*
X200540D01*
X198000Y116540D01*
X195460Y119080D01*
X192920D01*
Y116540D01*
X195460Y114000D01*
X192920Y111460D01*
Y108920D01*
X452920Y57920D02*
X455460D01*
X458000Y60460D01*
X460540Y57920D01*
X463080D01*
Y60460D01*
X460540Y63000D01*
X463080Y65540D01*
Y68080D01*
X460540D01*
X458000Y65540D01*
X455460Y68080D01*
X452920D01*
Y65540D01*
X455460Y63000D01*
X452920Y60460D01*
Y57920D01*
X401570Y46220D02*
X404110D01*
X406650Y48760D01*
X409190Y46220D01*
X411730D01*
Y48760D01*
X409190Y51300D01*
X411730Y53840D01*
Y56380D01*
X409190D01*
X406650Y53840D01*
X404110Y56380D01*
X401570D01*
Y53840D01*
X404110Y51300D01*
X401570Y48760D01*
Y46220D01*
X401770Y66920D02*
X404310D01*
X406850Y69460D01*
X409390Y66920D01*
X411930D01*
Y69460D01*
X409390Y72000D01*
X411930Y74540D01*
Y77080D01*
X409390D01*
X406850Y74540D01*
X404310Y77080D01*
X401770D01*
Y74540D01*
X404310Y72000D01*
X401770Y69460D01*
Y66920D01*
X590798Y178834D02*
X593338D01*
X595878Y181374D01*
X598418Y178834D01*
X600958D01*
Y181374D01*
X598418Y183914D01*
X600958Y186454D01*
Y188994D01*
X598418D01*
X595878Y186454D01*
X593338Y188994D01*
X590798D01*
Y186454D01*
X593338Y183914D01*
X590798Y181374D01*
Y178834D01*
X464920Y2920D02*
X467460D01*
X470000Y5460D01*
X472540Y2920D01*
X475080D01*
Y5460D01*
X472540Y8000D01*
X475080Y10540D01*
Y13080D01*
X472540D01*
X470000Y10540D01*
X467460Y13080D01*
X464920D01*
Y10540D01*
X467460Y8000D01*
X464920Y5460D01*
Y2920D01*
X95270Y394570D02*
X97810D01*
X100350Y397110D01*
X102890Y394570D01*
X105430D01*
Y397110D01*
X102890Y399650D01*
X105430Y402190D01*
Y404730D01*
X102890D01*
X100350Y402190D01*
X97810Y404730D01*
X95270D01*
Y402190D01*
X97810Y399650D01*
X95270Y397110D01*
Y394570D01*
X156920Y395920D02*
X159460D01*
X162000Y398460D01*
X164540Y395920D01*
X167080D01*
Y398460D01*
X164540Y401000D01*
X167080Y403540D01*
Y406080D01*
X164540D01*
X162000Y403540D01*
X159460Y406080D01*
X156920D01*
Y403540D01*
X159460Y401000D01*
X156920Y398460D01*
Y395920D01*
X243920Y249920D02*
X246460D01*
X249000Y252460D01*
X251540Y249920D01*
X254080D01*
Y252460D01*
X251540Y255000D01*
X254080Y257540D01*
Y260080D01*
X251540D01*
X249000Y257540D01*
X246460Y260080D01*
X243920D01*
Y257540D01*
X246460Y255000D01*
X243920Y252460D01*
Y249920D01*
X262770Y118920D02*
X265310D01*
X267850Y121460D01*
X270390Y118920D01*
X272930D01*
Y121460D01*
X270390Y124000D01*
X272930Y126540D01*
Y129080D01*
X270390D01*
X267850Y126540D01*
X265310Y129080D01*
X262770D01*
Y126540D01*
X265310Y124000D01*
X262770Y121460D01*
Y118920D01*
X188652Y252215D02*
X191192D01*
X193732Y254755D01*
X196272Y252215D01*
X198812D01*
Y254755D01*
X196272Y257295D01*
X198812Y259835D01*
Y262376D01*
X196272D01*
X193732Y259835D01*
X191192Y262376D01*
X188652D01*
Y259835D01*
X191192Y257295D01*
X188652Y254755D01*
Y252215D01*
X184272Y181978D02*
X186812D01*
X189352Y184518D01*
X191892Y181978D01*
X194432D01*
Y184518D01*
X191892Y187058D01*
X194432Y189598D01*
Y192138D01*
X191892D01*
X189352Y189598D01*
X186812Y192138D01*
X184272D01*
Y189598D01*
X186812Y187058D01*
X184272Y184518D01*
Y181978D01*
X190920Y145920D02*
X193460D01*
X196000Y148460D01*
X198540Y145920D01*
X201080D01*
Y148460D01*
X198540Y151000D01*
X201080Y153540D01*
Y156080D01*
X198540D01*
X196000Y153540D01*
X193460Y156080D01*
X190920D01*
Y153540D01*
X193460Y151000D01*
X190920Y148460D01*
Y145920D01*
X313770Y178920D02*
X316310D01*
X318850Y181460D01*
X321390Y178920D01*
X323930D01*
Y181460D01*
X321390Y184000D01*
X323930Y186540D01*
Y189080D01*
X321390D01*
X318850Y186540D01*
X316310Y189080D01*
X313770D01*
Y186540D01*
X316310Y184000D01*
X313770Y181460D01*
Y178920D01*
X328319Y181021D02*
X330859D01*
X333399Y183561D01*
X335939Y181021D01*
X338479D01*
Y183561D01*
X335939Y186101D01*
X338479Y188641D01*
Y191181D01*
X335939D01*
X333399Y188641D01*
X330859Y191181D01*
X328319D01*
Y188641D01*
X330859Y186101D01*
X328319Y183561D01*
Y181021D01*
X626920Y309920D02*
X629460D01*
X632000Y312460D01*
X634540Y309920D01*
X637080D01*
Y312460D01*
X634540Y315000D01*
X637080Y317540D01*
Y320080D01*
X634540D01*
X632000Y317540D01*
X629460Y320080D01*
X626920D01*
Y317540D01*
X629460Y315000D01*
X626920Y312460D01*
Y309920D01*
X597920Y303270D02*
X600460D01*
X603000Y305810D01*
X605540Y303270D01*
X608080D01*
Y305810D01*
X605540Y308350D01*
X608080Y310890D01*
Y313430D01*
X605540D01*
X603000Y310890D01*
X600460Y313430D01*
X597920D01*
Y310890D01*
X600460Y308350D01*
X597920Y305810D01*
Y303270D01*
X544920Y289920D02*
X547460D01*
X550000Y292460D01*
X552540Y289920D01*
X555080D01*
Y292460D01*
X552540Y295000D01*
X555080Y297540D01*
Y300080D01*
X552540D01*
X550000Y297540D01*
X547460Y300080D01*
X544920D01*
Y297540D01*
X547460Y295000D01*
X544920Y292460D01*
Y289920D01*
X86920Y354920D02*
X89460D01*
X92000Y357460D01*
X94540Y354920D01*
X97080D01*
Y357460D01*
X94540Y360000D01*
X97080Y362540D01*
Y365080D01*
X94540D01*
X92000Y362540D01*
X89460Y365080D01*
X86920D01*
Y362540D01*
X89460Y360000D01*
X86920Y357460D01*
Y354920D01*
X539920Y309920D02*
X542460D01*
X545000Y312460D01*
X547540Y309920D01*
X550080D01*
Y312460D01*
X547540Y315000D01*
X550080Y317540D01*
Y320080D01*
X547540D01*
X545000Y317540D01*
X542460Y320080D01*
X539920D01*
Y317540D01*
X542460Y315000D01*
X539920Y312460D01*
Y309920D01*
X83920Y318920D02*
X86460D01*
X89000Y321460D01*
X91540Y318920D01*
X94080D01*
Y321460D01*
X91540Y324000D01*
X94080Y326540D01*
Y329080D01*
X91540D01*
X89000Y326540D01*
X86460Y329080D01*
X83920D01*
Y326540D01*
X86460Y324000D01*
X83920Y321460D01*
Y318920D01*
X652920Y180920D02*
X655460D01*
X658000Y183460D01*
X660540Y180920D01*
X663080D01*
Y183460D01*
X660540Y186000D01*
X663080Y188540D01*
Y191080D01*
X660540D01*
X658000Y188540D01*
X655460Y191080D01*
X652920D01*
Y188540D01*
X655460Y186000D01*
X652920Y183460D01*
Y180920D01*
X565920Y168920D02*
X568460D01*
X571000Y171460D01*
X573540Y168920D01*
X576080D01*
Y171460D01*
X573540Y174000D01*
X576080Y176540D01*
Y179080D01*
X573540D01*
X571000Y176540D01*
X568460Y179080D01*
X565920D01*
Y176540D01*
X568460Y174000D01*
X565920Y171460D01*
Y168920D01*
X346920Y275920D02*
X349460D01*
X352000Y278460D01*
X354540Y275920D01*
X357080D01*
Y278460D01*
X354540Y281000D01*
X357080Y283540D01*
Y286080D01*
X354540D01*
X352000Y283540D01*
X349460Y286080D01*
X346920D01*
Y283540D01*
X349460Y281000D01*
X346920Y278460D01*
Y275920D01*
X243920Y389920D02*
X246460D01*
X249000Y392460D01*
X251540Y389920D01*
X254080D01*
Y392460D01*
X251540Y395000D01*
X254080Y397540D01*
Y400080D01*
X251540D01*
X249000Y397540D01*
X246460Y400080D01*
X243920D01*
Y397540D01*
X246460Y395000D01*
X243920Y392460D01*
Y389920D01*
X281920Y412920D02*
X284460D01*
X287000Y415460D01*
X289540Y412920D01*
X292080D01*
Y415460D01*
X289540Y418000D01*
X292080Y420540D01*
Y423080D01*
X289540D01*
X287000Y420540D01*
X284460Y423080D01*
X281920D01*
Y420540D01*
X284460Y418000D01*
X281920Y415460D01*
Y412920D01*
X369920Y428920D02*
X372460D01*
X375000Y431460D01*
X377540Y428920D01*
X380080D01*
Y431460D01*
X377540Y434000D01*
X380080Y436540D01*
Y439080D01*
X377540D01*
X375000Y436540D01*
X372460Y439080D01*
X369920D01*
Y436540D01*
X372460Y434000D01*
X369920Y431460D01*
Y428920D01*
X347920Y422920D02*
X350460D01*
X353000Y425460D01*
X355540Y422920D01*
X358080D01*
Y425460D01*
X355540Y428000D01*
X358080Y430540D01*
Y433080D01*
X355540D01*
X353000Y430540D01*
X350460Y433080D01*
X347920D01*
Y430540D01*
X350460Y428000D01*
X347920Y425460D01*
Y422920D01*
X307920Y355920D02*
X310460D01*
X313000Y358460D01*
X315540Y355920D01*
X318080D01*
Y358460D01*
X315540Y361000D01*
X318080Y363540D01*
Y366080D01*
X315540D01*
X313000Y363540D01*
X310460Y366080D01*
X307920D01*
Y363540D01*
X310460Y361000D01*
X307920Y358460D01*
Y355920D01*
X374920Y290920D02*
X377460D01*
X380000Y293460D01*
X382540Y290920D01*
X385080D01*
Y293460D01*
X382540Y296000D01*
X385080Y298540D01*
Y301080D01*
X382540D01*
X380000Y298540D01*
X377460Y301080D01*
X374920D01*
Y298540D01*
X377460Y296000D01*
X374920Y293460D01*
Y290920D01*
X494920Y356920D02*
X497460D01*
X500000Y359460D01*
X502540Y356920D01*
X505080D01*
Y359460D01*
X502540Y362000D01*
X505080Y364540D01*
Y367080D01*
X502540D01*
X500000Y364540D01*
X497460Y367080D01*
X494920D01*
Y364540D01*
X497460Y362000D01*
X494920Y359460D01*
Y356920D01*
D93*
X663430Y209450D02*
G03*
X663430Y209450I-5080J0D01*
G01*
X638030D02*
G03*
X638030Y209450I-5080J0D01*
G01*
X612630D02*
G03*
X612630Y209450I-5080J0D01*
G01*
X587230D02*
G03*
X587230Y209450I-5080J0D01*
G01*
X561830D02*
G03*
X561830Y209450I-5080J0D01*
G01*
X536430D02*
G03*
X536430Y209450I-5080J0D01*
G01*
X511030D02*
G03*
X511030Y209450I-5080J0D01*
G01*
X485630D02*
G03*
X485630Y209450I-5080J0D01*
G01*
X460230D02*
G03*
X460230Y209450I-5080J0D01*
G01*
X434830D02*
G03*
X434830Y209450I-5080J0D01*
G01*
X409430D02*
G03*
X409430Y209450I-5080J0D01*
G01*
X384030D02*
G03*
X384030Y209450I-5080J0D01*
G01*
X358630D02*
G03*
X358630Y209450I-5080J0D01*
G01*
X333230D02*
G03*
X333230Y209450I-5080J0D01*
G01*
X663430Y133250D02*
G03*
X663430Y133250I-5080J0D01*
G01*
X638030D02*
G03*
X638030Y133250I-5080J0D01*
G01*
X612630D02*
G03*
X612630Y133250I-5080J0D01*
G01*
X587230D02*
G03*
X587230Y133250I-5080J0D01*
G01*
X561830D02*
G03*
X561830Y133250I-5080J0D01*
G01*
X536430D02*
G03*
X536430Y133250I-5080J0D01*
G01*
X511030D02*
G03*
X511030Y133250I-5080J0D01*
G01*
X485630D02*
G03*
X485630Y133250I-5080J0D01*
G01*
X460230D02*
G03*
X460230Y133250I-5080J0D01*
G01*
X434830D02*
G03*
X434830Y133250I-5080J0D01*
G01*
X409430D02*
G03*
X409430Y133250I-5080J0D01*
G01*
X384030D02*
G03*
X384030Y133250I-5080J0D01*
G01*
X358630D02*
G03*
X358630Y133250I-5080J0D01*
G01*
X333230D02*
G03*
X333230Y133250I-5080J0D01*
G01*
X360680Y25400D02*
G03*
X360680Y25400I-5080J0D01*
G01*
X462280D02*
G03*
X462280Y25400I-5080J0D01*
G01*
X436880D02*
G03*
X436880Y25400I-5080J0D01*
G01*
X411480D02*
G03*
X411480Y25400I-5080J0D01*
G01*
X386080D02*
G03*
X386080Y25400I-5080J0D01*
G01*
X335280D02*
G03*
X335280Y25400I-5080J0D01*
G01*
X309880D02*
G03*
X309880Y25400I-5080J0D01*
G01*
X284480D02*
G03*
X284480Y25400I-5080J0D01*
G01*
X621280Y25000D02*
G03*
X621280Y25000I-5080J0D01*
G01*
X595880D02*
G03*
X595880Y25000I-5080J0D01*
G01*
X570480D02*
G03*
X570480Y25000I-5080J0D01*
G01*
X545080D02*
G03*
X545080Y25000I-5080J0D01*
G01*
X519680D02*
G03*
X519680Y25000I-5080J0D01*
G01*
X494280D02*
G03*
X494280Y25000I-5080J0D01*
G01*
X193040Y508000D02*
G03*
X193040Y508000I-5080J0D01*
G01*
X218440D02*
G03*
X218440Y508000I-5080J0D01*
G01*
X243840D02*
G03*
X243840Y508000I-5080J0D01*
G01*
X269240D02*
G03*
X269240Y508000I-5080J0D01*
G01*
X294640D02*
G03*
X294640Y508000I-5080J0D01*
G01*
X320040D02*
G03*
X320040Y508000I-5080J0D01*
G01*
X345440D02*
G03*
X345440Y508000I-5080J0D01*
G01*
X370840D02*
G03*
X370840Y508000I-5080J0D01*
G01*
X396240D02*
G03*
X396240Y508000I-5080J0D01*
G01*
X421640D02*
G03*
X421640Y508000I-5080J0D01*
G01*
X640080D02*
G03*
X640080Y508000I-5080J0D01*
G01*
X614680D02*
G03*
X614680Y508000I-5080J0D01*
G01*
X589280D02*
G03*
X589280Y508000I-5080J0D01*
G01*
X538480D02*
G03*
X538480Y508000I-5080J0D01*
G01*
X513080D02*
G03*
X513080Y508000I-5080J0D01*
G01*
X487680D02*
G03*
X487680Y508000I-5080J0D01*
G01*
X462280D02*
G03*
X462280Y508000I-5080J0D01*
G01*
X563880D02*
G03*
X563880Y508000I-5080J0D01*
G01*
X145080Y376900D02*
G03*
X145080Y376900I-5080J0D01*
G01*
Y402300D02*
G03*
X145080Y402300I-5080J0D01*
G01*
Y427700D02*
G03*
X145080Y427700I-5080J0D01*
G01*
Y453100D02*
G03*
X145080Y453100I-5080J0D01*
G01*
X667080Y418200D02*
G03*
X667080Y418200I-5080J0D01*
G01*
Y443600D02*
G03*
X667080Y443600I-5080J0D01*
G01*
Y469000D02*
G03*
X667080Y469000I-5080J0D01*
G01*
X135480Y83000D02*
G03*
X135480Y83000I-5080J0D01*
G01*
X110080D02*
G03*
X110080Y83000I-5080J0D01*
G01*
X84680D02*
G03*
X84680Y83000I-5080J0D01*
G01*
X74480Y497000D02*
G03*
X74480Y497000I-5080J0D01*
G01*
X49080D02*
G03*
X49080Y497000I-5080J0D01*
G01*
X23680D02*
G03*
X23680Y497000I-5080J0D01*
G01*
X74480Y471600D02*
G03*
X74480Y471600I-5080J0D01*
G01*
X49080D02*
G03*
X49080Y471600I-5080J0D01*
G01*
X23680D02*
G03*
X23680Y471600I-5080J0D01*
G01*
X76880Y423000D02*
G03*
X76880Y423000I-5080J0D01*
G01*
X51480D02*
G03*
X51480Y423000I-5080J0D01*
G01*
X26080D02*
G03*
X26080Y423000I-5080J0D01*
G01*
X76880Y397600D02*
G03*
X76880Y397600I-5080J0D01*
G01*
X51480D02*
G03*
X51480Y397600I-5080J0D01*
G01*
X26080D02*
G03*
X26080Y397600I-5080J0D01*
G01*
X50080Y369400D02*
G03*
X50080Y369400I-5080J0D01*
G01*
Y344000D02*
G03*
X50080Y344000I-5080J0D01*
G01*
X75480Y369400D02*
G03*
X75480Y369400I-5080J0D01*
G01*
Y344000D02*
G03*
X75480Y344000I-5080J0D01*
G01*
M02*
