M48
;Layer_Color=9474304
;FILE_FORMAT=4:4
METRIC,LZ
;TYPE=PLATED
T02F00S00C0.7112
T03F00S00C1.0000
T04F00S00C1.1000
T05F00S00C1.5000
T06F00S00C3.2000
;TYPE=NON_PLATED
T07F00S00C3.2000
%
T02
X0040665Y000513
X0040685Y00072
X00458Y00063
X0047Y00008
X00571Y00174
X00595878Y00183914
X00658Y00186
X00632Y00315
X00603Y0030835
X00545Y00315
X0055Y00295
X00551Y00259
X005113Y00249
X00417Y00256
X0038Y00296
X00352Y00281
X0027365Y0030535
X00259319Y00314681
X00289818Y00326819
X00249Y00255
X00246681Y00212318
X00267Y00196
X0031885Y00184
X00333399Y00186101
X0037Y001809
X0026785Y00124
X00198Y00114
X00194Y00095
X0020185Y0008085
X00221Y00061
X00213Y00167
X00196Y00151
X00169Y00166
X00151Y00164
X0011835Y00191055
X00123Y00205
Y0024125
X00105656Y002383
X0011415Y00258
X00133Y00285
X00135Y00305
X00131Y003247
X00152345Y0031535
X00156517Y00289
X00181217Y00285
X00175906Y00306047
X00193732Y00257295
X00189352Y00187058
X00103Y00152
X00073Y00162
X00077351Y00199421
X0004Y0015265
X00086Y00109
X00135Y00108
X00084903Y00279907
X00065Y00281
X00089Y00324
X00092Y0036
X0010035Y0039965
X00162Y00401
X00249Y00395
X00253Y00349
X002685Y003335
X00313Y00361
X00287Y00418
X00277Y0048
X00227Y00481
X00081Y0045
X00051Y00516
X00021Y0036
X00353Y00428
X00375Y00434
X00426Y00362
X005
T03
X006105Y002405
Y002855
X006755
Y002405
X002525Y000585
Y000135
X001875
Y000585
T04
X00381Y000254
X004064
X004318
X004572
X004892Y00025
X005146
X0054
X005654
X005908
X006162
X0060755Y0013325
X0063295
X0065835
Y0020945
X0063295
X0060755
X0058215
X0055675
X0053135
X0050595
X0048055
X0045515
X0042975
X0040435
X0037895
Y0013325
X0040435
X0042975
X0045515
X0048055
X0050595
X0053135
X0055675
X0058215
X0035355
X0032815
Y0020945
X0035355
X003556Y000254
X003302
X003048
X002794
X001304Y00083
X00105
X000796
X000704Y00344
X00045
Y003694
X000704
X000718Y003976
Y00423
X000464
X00021
Y003976
X000464
X00044Y004716
Y00497
X000694
Y004716
X000186
Y00497
X0014Y004531
Y004277
Y004023
Y003769
X0018796Y00508
X0021336
X0023876
X0026416
X0028956
X0031496
X0034036
X0036576
X0039116
X0041656
X004572
X004826
X00508
X005334
X005588
X005842
X006096
X00635
X00662Y00469
Y004436
Y004182
T05
X00024Y0008
X00259Y00156
T06
X00664Y00079
X00136Y00024
X006604Y003556
T07
X0013Y00509
M30
