G04*
G04 #@! TF.GenerationSoftware,Altium Limited,Altium Designer,24.9.1 (31)*
G04*
G04 Layer_Physical_Order=2*
G04 Layer_Color=16711680*
%FSLAX44Y44*%
%MOMM*%
G71*
G04*
G04 #@! TF.SameCoordinates,A047F96F-CBB5-4FC4-9413-2E79A8D59A8A*
G04*
G04*
G04 #@! TF.FilePolarity,Positive*
G04*
G01*
G75*
%ADD13R,0.8000X0.8000*%
%ADD14R,1.2500X2.0000*%
%ADD19C,0.5000*%
%ADD20O,2.0000X1.6000*%
%ADD21R,2.0000X1.6000*%
%ADD22C,0.6000*%
G36*
X160000Y154488D02*
X159819Y154217D01*
X159392Y152071D01*
Y132323D01*
X148535Y121465D01*
X148224Y121000D01*
X132000D01*
Y99000D01*
X158000D01*
X160000Y96828D01*
Y91549D01*
X157056Y88650D01*
X156730Y88651D01*
X156207Y89916D01*
X154517Y92117D01*
X152316Y93807D01*
X149752Y94869D01*
X147000Y95231D01*
X146270D01*
Y84600D01*
Y73969D01*
X147000D01*
X149752Y74331D01*
X152316Y75393D01*
X152944Y75876D01*
X160000Y68819D01*
Y10000D01*
X15000D01*
Y190000D01*
X160000D01*
Y154488D01*
D02*
G37*
%LPC*%
G36*
X143730Y95231D02*
X143000D01*
X140248Y94869D01*
X137684Y93807D01*
X135483Y92117D01*
X133793Y89916D01*
X132731Y87352D01*
X132536Y85870D01*
X143730D01*
Y95231D01*
D02*
G37*
G36*
Y83330D02*
X132536D01*
X132731Y81848D01*
X133793Y79285D01*
X135483Y77083D01*
X137684Y75393D01*
X140248Y74331D01*
X143000Y73969D01*
X143730D01*
Y83330D01*
D02*
G37*
G36*
X101270Y45470D02*
Y41270D01*
X105470D01*
X104697Y43138D01*
X103138Y44697D01*
X101270Y45470D01*
D02*
G37*
G36*
X98730D02*
X96862Y44697D01*
X95303Y43138D01*
X94530Y41270D01*
X98730D01*
Y45470D01*
D02*
G37*
G36*
X105470Y38730D02*
X101270D01*
Y34530D01*
X103138Y35303D01*
X104697Y36862D01*
X105470Y38730D01*
D02*
G37*
G36*
X98730D02*
X94530D01*
X95303Y36862D01*
X96862Y35303D01*
X98730Y34530D01*
Y38730D01*
D02*
G37*
%LPD*%
D13*
X180000Y73250D02*
D03*
Y56750D02*
D03*
D14*
Y152780D02*
D03*
Y118490D02*
D03*
D19*
X154255Y82495D02*
X180000Y56750D01*
X147105Y82495D02*
X154255D01*
X145000Y84600D02*
X147105Y82495D01*
X180000Y73250D02*
Y118490D01*
X177780Y155000D02*
X180000Y152780D01*
X165000Y152071D02*
X167929Y155000D01*
X165000Y130000D02*
Y152071D01*
X167929Y155000D02*
X177780D01*
X147000Y110000D02*
X152500Y115500D01*
Y117500D01*
X165000Y130000D01*
X145000Y110000D02*
X147000D01*
D20*
X145000Y84600D02*
D03*
D21*
Y110000D02*
D03*
D22*
X100000Y40000D02*
D03*
M02*
