G04*
G04 #@! TF.GenerationSoftware,Altium Limited,Altium Designer,24.9.1 (31)*
G04*
G04 Layer_Color=65535*
%FSLAX44Y44*%
%MOMM*%
G71*
G04*
G04 #@! TF.SameCoordinates,A047F96F-CBB5-4FC4-9413-2E79A8D59A8A*
G04*
G04*
G04 #@! TF.FilePolarity,Positive*
G04*
G01*
G75*
%ADD10C,0.2000*%
%ADD11C,0.2540*%
%ADD12R,1.6000X0.5000*%
D10*
X47000Y65000D02*
X63000D01*
Y29000D02*
Y65000D01*
X47000Y29000D02*
X63000D01*
X47000D02*
Y65000D01*
X115790Y84600D02*
X131030D01*
Y110000D01*
X115790D02*
X131030D01*
X115790Y122700D02*
X174210D01*
X115790Y71900D02*
Y122700D01*
Y71900D02*
X174210D01*
Y122700D01*
X45000Y99000D02*
X47750D01*
X45000D02*
Y162000D01*
X65000D01*
Y99000D02*
Y162000D01*
X47750Y99000D02*
X65000D01*
D11*
X178020Y104920D02*
X183098D01*
X180559D01*
Y120155D01*
X178020Y117616D01*
X117540Y17618D02*
X125157D01*
X127697Y20157D01*
X125157Y22697D01*
X120079D01*
X117540Y25236D01*
X120079Y27775D01*
X127697D01*
X140393Y17618D02*
X135314D01*
X132775Y20157D01*
Y25236D01*
X135314Y27775D01*
X140393D01*
X142932Y25236D01*
Y22697D01*
X132775D01*
X148010Y27775D02*
Y20157D01*
X150549Y17618D01*
X158167D01*
Y15079D01*
X155628Y12540D01*
X153089D01*
X158167Y17618D02*
Y27775D01*
X165784Y17618D02*
Y30314D01*
Y25236D01*
X163245D01*
X168324D01*
X165784D01*
Y30314D01*
X168324Y32853D01*
X178480Y17618D02*
X183559D01*
X186098Y20157D01*
Y25236D01*
X183559Y27775D01*
X178480D01*
X175941Y25236D01*
Y20157D01*
X178480Y17618D01*
X97540Y82540D02*
X107697D01*
X97540Y112618D02*
X107697D01*
X102618Y117697D02*
Y107540D01*
X24922Y137382D02*
Y152618D01*
X32539D01*
X35078Y150078D01*
Y145000D01*
X32539Y142461D01*
X24922D01*
X30000D02*
X35078Y137382D01*
X125078Y147618D02*
X120000D01*
X122539D01*
Y134922D01*
X120000Y132382D01*
X117461D01*
X114922Y134922D01*
X19843Y52618D02*
Y37383D01*
X27461D01*
X30000Y39922D01*
Y50078D01*
X27461Y52618D01*
X19843D01*
X35078Y37383D02*
X40157D01*
X37618D01*
Y52618D01*
X35078Y50078D01*
D12*
X55000Y62500D02*
D03*
M02*
